<?xml version="1.0" encoding="UTF-8" standalone="no"?>
<!-- Created with Inkscape (http://www.inkscape.org/) -->

<svg
   xmlns:dc="http://purl.org/dc/elements/1.1/"
   xmlns:cc="http://creativecommons.org/ns#"
   xmlns:rdf="http://www.w3.org/1999/02/22-rdf-syntax-ns#"
   xmlns:svg="http://www.w3.org/2000/svg"
   xmlns="http://www.w3.org/2000/svg"
   xmlns:sodipodi="http://sodipodi.sourceforge.net/DTD/sodipodi-0.dtd"
   xmlns:inkscape="http://www.inkscape.org/namespaces/inkscape"
   max-height="100%"
   max-width="100%"
   viewBox="0 0 780.60138 454.33354"
   id="svg3460"
   version="1.1"
   inkscape:version="0.91 r13725"
   sodipodi:docname="Lot 1.svg">
  <defs
     id="defs3462" />
  <sodipodi:namedview
     id="base"
     pagecolor="#ffffff"
     bordercolor="#666666"
     borderopacity="1.0"
     inkscape:pageopacity="0.0"
     inkscape:pageshadow="2"
     inkscape:zoom="0.49497475"
     inkscape:cx="182.59842"
     inkscape:cy="485.43683"
     inkscape:document-units="px"
     inkscape:current-layer="layer3"
     showgrid="false"
     fit-margin-left="1"
     fit-margin-top="1"
     fit-margin-bottom="1"
     fit-margin-right="1"
     inkscape:window-width="1920"
     inkscape:window-height="1017"
     inkscape:window-x="-8"
     inkscape:window-y="-8"
     inkscape:window-maximized="1" />
  <metadata
     id="metadata3465">
    <rdf:RDF>
      <cc:Work
         rdf:about="">
        <dc:format>image/svg+xml</dc:format>
        <dc:type
           rdf:resource="http://purl.org/dc/dcmitype/StillImage" />
        <dc:title />
      </cc:Work>
    </rdf:RDF>
  </metadata>
  <g
     inkscape:label="Laag 1"
     inkscape:groupmode="layer"
     id="layer1"
     transform="translate(-167.83875,-162.6739)"
     style="display:inline">
    <rect
       style="fill:#ff0505;fill-opacity:1;stroke:none"
       id="ParkingSpace-1"
       width="43"
       height="22"
       x="-337.52203"
       y="392.7634"
       transform="matrix(0.5,-0.8660254,0.8660254,0.5,0,0)" />
    <rect
       style="fill:#ff0505;fill-opacity:1;stroke:none"
       id="ParkingSpace-2"
       width="43"
       height="22"
       x="-323.52478"
       y="416.99484"
       transform="matrix(0.5,-0.8660254,0.8660254,0.5,0,0)" />
    <rect
       style="fill:#ff0505;fill-opacity:1;stroke:none"
       id="ParkingSpace-3"
       width="43"
       height="22"
       x="-309.5177"
       y="441.25519"
       transform="matrix(0.5,-0.8660254,0.8660254,0.5,0,0)" />
    <rect
       style="fill:#ff0505;fill-opacity:1;stroke:none"
       id="ParkingSpace-4"
       width="43"
       height="22"
       x="-295.51495"
       y="465.46597"
       transform="matrix(0.5,-0.8660254,0.8660254,0.5,0,0)" />
    <rect
       style="fill:#ff0505;fill-opacity:1;stroke:none"
       id="ParkingSpace-5"
       width="43"
       height="22"
       x="-281.50787"
       y="489.72632"
       transform="matrix(0.5,-0.8660254,0.8660254,0.5,0,0)" />
    <rect
       style="fill:#ff0505;fill-opacity:1;stroke:none"
       id="ParkingSpace-6"
       width="43"
       height="22"
       x="-267.51062"
       y="513.95776"
       transform="matrix(0.5,-0.8660254,0.8660254,0.5,0,0)" />
    <rect
       style="fill:#ff0505;fill-opacity:1;stroke:none"
       id="ParkingSpace-7"
       width="43"
       height="22"
       x="-253.50354"
       y="538.21844"
       transform="matrix(0.5,-0.8660254,0.8660254,0.5,0,0)" />
    <rect
       style="fill:#ff0505;fill-opacity:1;stroke:none"
       id="ParkingSpace-8"
       width="43"
       height="22"
       x="-239.47032"
       y="562.43951"
       transform="matrix(0.5,-0.8660254,0.8660254,0.5,0,0)" />
    <rect
       style="fill:#ff0505;fill-opacity:1;stroke:none"
       id="ParkingSpace-9"
       width="43"
       height="22"
       x="-225.46324"
       y="586.69989"
       transform="matrix(0.5,-0.8660254,0.8660254,0.5,0,0)" />
    <rect
       style="fill:#ff0505;fill-opacity:1;stroke:none"
       id="ParkingSpace-10"
       width="43"
       height="22"
       x="-211.46599"
       y="610.93134"
       transform="matrix(0.5,-0.8660254,0.8660254,0.5,0,0)" />
    <rect
       style="fill:#ff0505;fill-opacity:1;stroke:none"
       id="ParkingSpace-11"
       width="43"
       height="22"
       x="-197.45891"
       y="635.19165"
       transform="matrix(0.5,-0.8660254,0.8660254,0.5,0,0)" />
    <rect
       style="fill:#ff0505;fill-opacity:1;stroke:none"
       id="ParkingSpace-12"
       width="43"
       height="22"
       x="-183.45616"
       y="659.40247"
       transform="matrix(0.5,-0.8660254,0.8660254,0.5,0,0)" />
    <rect
       style="fill:#ff0505;fill-opacity:1;stroke:none"
       id="ParkingSpace-13"
       width="43"
       height="22"
       x="-169.44908"
       y="683.66278"
       transform="matrix(0.5,-0.8660254,0.8660254,0.5,0,0)" />
    <rect
       style="fill:#ff0505;fill-opacity:1;stroke:none"
       id="ParkingSpace-14"
       width="43"
       height="22"
       x="-155.45183"
       y="707.89423"
       transform="matrix(0.5,-0.8660254,0.8660254,0.5,0,0)" />
    <rect
       style="fill:#ff0505;fill-opacity:1;stroke:none"
       id="ParkingSpace-15"
       width="43"
       height="22"
       x="-141.44475"
       y="732.15491"
       transform="matrix(0.5,-0.8660254,0.8660254,0.5,0,0)" />
    <rect
       style="fill:#ff0505;fill-opacity:1;stroke:none"
       id="ParkingSpace-16"
       width="43"
       height="22"
       x="-632.47852"
       y="464.58832"
       transform="matrix(-0.25881904,-0.96592583,0.96592583,-0.25881904,0,0)" />
    <rect
       style="fill:#ff0505;fill-opacity:1;stroke:none"
       id="ParkingSpace-17"
       width="43"
       height="22"
       x="-618.47144"
       y="488.84869"
       transform="matrix(-0.25881904,-0.96592583,0.96592583,-0.25881904,0,0)" />
    <rect
       style="fill:#ff0505;fill-opacity:1;stroke:none"
       id="ParkingSpace-18"
       width="43"
       height="22"
       x="-604.47418"
       y="513.08014"
       transform="matrix(-0.25881904,-0.96592583,0.96592583,-0.25881904,0,0)" />
    <rect
       style="fill:#ff0505;fill-opacity:1;stroke:none"
       id="ParkingSpace-19"
       width="43"
       height="22"
       x="-590.4671"
       y="537.34045"
       transform="matrix(-0.25881904,-0.96592583,0.96592583,-0.25881904,0,0)" />
    <rect
       style="fill:#ff0505;fill-opacity:1;stroke:none"
       id="ParkingSpace-20"
       width="43"
       height="22"
       x="-576.46436"
       y="561.55127"
       transform="matrix(-0.25881904,-0.96592583,0.96592583,-0.25881904,0,0)" />
    <rect
       style="fill:#ff0505;fill-opacity:1;stroke:none"
       id="ParkingSpace-21"
       width="43"
       height="22"
       x="-562.45728"
       y="585.81158"
       transform="matrix(-0.25881904,-0.96592583,0.96592583,-0.25881904,0,0)" />
    <rect
       style="fill:#ff0505;fill-opacity:1;stroke:none"
       id="ParkingSpace-22"
       width="43"
       height="22"
       x="-548.46002"
       y="610.04303"
       transform="matrix(-0.25881904,-0.96592583,0.96592583,-0.25881904,0,0)" />
    <rect
       style="fill:#ff0505;fill-opacity:1;stroke:none"
       id="ParkingSpace-23"
       width="43"
       height="22"
       x="-534.45294"
       y="634.30371"
       transform="matrix(-0.25881904,-0.96592583,0.96592583,-0.25881904,0,0)" />
    <rect
       style="fill:#ff0505;fill-opacity:1;stroke:none"
       id="ParkingSpace-24"
       width="43"
       height="22"
       x="-520.41974"
       y="658.52478"
       transform="matrix(-0.25881904,-0.96592583,0.96592583,-0.25881904,0,0)" />
    <rect
       style="fill:#ff0505;fill-opacity:1;stroke:none"
       id="ParkingSpace-25"
       width="43"
       height="22"
       x="-506.41272"
       y="682.78516"
       transform="matrix(-0.25881904,-0.96592583,0.96592583,-0.25881904,0,0)" />
    <rect
       style="fill:#ff0505;fill-opacity:1;stroke:none"
       id="ParkingSpace-26"
       width="43"
       height="22"
       x="-492.41547"
       y="707.0166"
       transform="matrix(-0.25881904,-0.96592583,0.96592583,-0.25881904,0,0)" />
    <rect
       style="fill:#ff0505;fill-opacity:1;stroke:none"
       id="ParkingSpace-27"
       width="43"
       height="22"
       x="-478.40839"
       y="731.27692"
       transform="matrix(-0.25881904,-0.96592583,0.96592583,-0.25881904,0,0)" />
    <rect
       style="fill:#ff0505;fill-opacity:1;stroke:none"
       id="ParkingSpace-28"
       width="43"
       height="22"
       x="-464.40558"
       y="755.48773"
       transform="matrix(-0.25881904,-0.96592583,0.96592583,-0.25881904,0,0)" />
    <rect
       style="fill:#ff0505;fill-opacity:1;stroke:none"
       id="ParkingSpace-29"
       width="43"
       height="22"
       x="-450.3985"
       y="779.74805"
       transform="matrix(-0.25881904,-0.96592583,0.96592583,-0.25881904,0,0)" />
    <rect
       style="fill:#ff0505;fill-opacity:1;stroke:none"
       id="ParkingSpace-30"
       width="43"
       height="22"
       x="-436.40125"
       y="803.97949"
       transform="matrix(-0.25881904,-0.96592583,0.96592583,-0.25881904,0,0)" />
    <path
       style="fill:#ff0505;fill-opacity:1;stroke:none"
       id="path3646"
       sodipodi:type="arc"
       sodipodi:cx="402.79834"
       sodipodi:cy="294.7478"
       sodipodi:rx="15.909903"
       sodipodi:ry="32.829956"
       sodipodi:start="0"
       sodipodi:end="0.05371181"
       d="m 418.70824,294.7478 a 15.909903,32.829956 0 0 1 -0.0229,1.76251"
       sodipodi:open="true" />
    <rect
       style="fill:#ff0505;fill-opacity:1;stroke:none"
       id="ParkingSpace-31"
       width="43"
       height="22"
       x="-641.71216"
       y="-115.45023"
       transform="matrix(-0.5,-0.8660254,0.8660254,-0.5,0,0)" />
    <rect
       style="fill:#ff0505;fill-opacity:1;stroke:none"
       id="ParkingSpace-32"
       width="43"
       height="22"
       x="-655.71869"
       y="-91.189575"
       transform="matrix(-0.5,-0.8660254,0.8660254,-0.5,0,0)" />
    <rect
       style="fill:#ff0505;fill-opacity:1;stroke:none"
       id="ParkingSpace-33"
       width="43"
       height="22"
       x="-669.68445"
       y="-66.957458"
       transform="matrix(-0.5,-0.8660254,0.8660254,-0.5,0,0)" />
    <rect
       style="fill:#ff0505;fill-opacity:1;stroke:none"
       id="ParkingSpace-34"
       width="43"
       height="22"
       x="-683.69098"
       y="-42.696777"
       transform="matrix(-0.5,-0.8660254,0.8660254,-0.5,0,0)" />
    <rect
       style="fill:#ff0505;fill-opacity:1;stroke:none"
       id="ParkingSpace-35"
       width="43"
       height="22"
       x="-697.67743"
       y="-18.459061"
       transform="matrix(-0.5,-0.8660254,0.8660254,-0.5,0,0)" />
    <rect
       style="fill:#ff0505;fill-opacity:1;stroke:none"
       id="ParkingSpace-36"
       width="43"
       height="22"
       x="-711.68414"
       y="5.8016887"
       transform="matrix(-0.5,-0.8660254,0.8660254,-0.5,0,0)" />
    <rect
       style="fill:#ff0505;fill-opacity:1;stroke:none"
       id="ParkingSpace-37"
       width="43"
       height="22"
       x="-725.64368"
       y="30.065342"
       transform="matrix(-0.5,-0.8660254,0.8660254,-0.5,0,0)" />
    <rect
       style="fill:#ff0505;fill-opacity:1;stroke:none"
       id="ParkingSpace-38"
       width="43"
       height="22"
       x="-739.65021"
       y="54.326054"
       transform="matrix(-0.5,-0.8660254,0.8660254,-0.5,0,0)" />
    <rect
       style="fill:#ff0505;fill-opacity:1;stroke:none"
       id="ParkingSpace-39"
       width="43"
       height="22"
       x="-753.63666"
       y="78.563782"
       transform="matrix(-0.5,-0.8660254,0.8660254,-0.5,0,0)" />
    <rect
       style="fill:#ff0505;fill-opacity:1;stroke:none"
       id="ParkingSpace-40"
       width="43"
       height="22"
       x="-767.64319"
       y="102.82441"
       transform="matrix(-0.5,-0.8660254,0.8660254,-0.5,0,0)" />
    <rect
       style="fill:#ff0505;fill-opacity:1;stroke:none"
       id="ParkingSpace-41"
       width="43"
       height="22"
       x="-781.60895"
       y="127.05659"
       transform="matrix(-0.5,-0.8660254,0.8660254,-0.5,0,0)" />
    <rect
       style="fill:#ff0505;fill-opacity:1;stroke:none"
       id="ParkingSpace-42"
       width="43"
       height="22"
       x="-795.61554"
       y="151.31728"
       transform="matrix(-0.5,-0.8660254,0.8660254,-0.5,0,0)" />
    <rect
       style="fill:#ff0505;fill-opacity:1;stroke:none"
       id="ParkingSpace-43"
       width="43"
       height="22"
       x="-809.60187"
       y="175.55495"
       transform="matrix(-0.5,-0.8660254,0.8660254,-0.5,0,0)" />
    <rect
       style="fill:#ff0505;fill-opacity:1;stroke:none"
       id="ParkingSpace-44"
       width="43"
       height="22"
       x="-823.6087"
       y="199.81575"
       transform="matrix(-0.5,-0.8660254,0.8660254,-0.5,0,0)" />
    <rect
       style="fill:#ff0505;fill-opacity:1;stroke:none"
       id="ParkingSpace-45"
       width="43"
       height="22"
       x="-837.60748"
       y="223.96912"
       transform="matrix(-0.5,-0.8660254,0.8660254,-0.5,0,0)" />
    <rect
       style="fill:#ff0505;fill-opacity:1;stroke:none"
       id="ParkingSpace-46"
       width="43"
       height="22"
       x="-851.61401"
       y="248.22978"
       transform="matrix(-0.5,-0.8660254,0.8660254,-0.5,0,0)" />
    <rect
       style="fill:#ff0505;fill-opacity:1;stroke:none"
       id="ParkingSpace-47"
       width="43"
       height="22"
       x="-839.43304"
       y="-355.87634"
       transform="matrix(-0.96592582,-0.25881905,0.25881905,-0.96592582,0,0)" />
    <rect
       style="fill:#ff0505;fill-opacity:1;stroke:none"
       id="ParkingSpace-48"
       width="43"
       height="22"
       x="-853.43964"
       y="-331.61566"
       transform="matrix(-0.96592582,-0.25881905,0.25881905,-0.96592582,0,0)" />
    <rect
       style="fill:#ff0505;fill-opacity:1;stroke:none"
       id="ParkingSpace-49"
       width="43"
       height="22"
       x="-867.42603"
       y="-307.37796"
       transform="matrix(-0.96592582,-0.25881905,0.25881905,-0.96592582,0,0)" />
    <rect
       style="fill:#ff0505;fill-opacity:1;stroke:none"
       id="ParkingSpace-50"
       width="43"
       height="22"
       x="-881.43256"
       y="-283.11737"
       transform="matrix(-0.96592582,-0.25881905,0.25881905,-0.96592582,0,0)" />
    <rect
       style="fill:#ff0505;fill-opacity:1;stroke:none"
       id="ParkingSpace-51"
       width="43"
       height="22"
       x="-895.39838"
       y="-258.88519"
       transform="matrix(-0.96592582,-0.25881905,0.25881905,-0.96592582,0,0)" />
    <rect
       style="fill:#ff0505;fill-opacity:1;stroke:none"
       id="ParkingSpace-52"
       width="43"
       height="22"
       x="-909.40485"
       y="-234.62503"
       transform="matrix(-0.96592582,-0.25881905,0.25881905,-0.96592582,0,0)" />
    <rect
       style="fill:#ff0505;fill-opacity:1;stroke:none"
       id="ParkingSpace-53"
       width="43"
       height="22"
       x="-923.39136"
       y="-210.38733"
       transform="matrix(-0.96592582,-0.25881905,0.25881905,-0.96592582,0,0)" />
    <rect
       style="fill:#ff0505;fill-opacity:1;stroke:none"
       id="ParkingSpace-54"
       width="43"
       height="22"
       x="-937.39813"
       y="-186.1265"
       transform="matrix(-0.96592582,-0.25881905,0.25881905,-0.96592582,0,0)" />
    <rect
       style="fill:#ff0505;fill-opacity:1;stroke:none"
       id="ParkingSpace-55"
       width="43"
       height="22"
       x="-951.3576"
       y="-161.86285"
       transform="matrix(-0.96592582,-0.25881905,0.25881905,-0.96592582,0,0)" />
    <rect
       style="fill:#ff0505;fill-opacity:1;stroke:none"
       id="ParkingSpace-56"
       width="43"
       height="22"
       x="-965.3642"
       y="-137.60223"
       transform="matrix(-0.96592582,-0.25881905,0.25881905,-0.96592582,0,0)" />
    <rect
       style="fill:#ff0505;fill-opacity:1;stroke:none"
       id="ParkingSpace-57"
       width="43"
       height="22"
       x="-979.35052"
       y="-113.36445"
       transform="matrix(-0.96592582,-0.25881905,0.25881905,-0.96592582,0,0)" />
    <rect
       style="fill:#ff0505;fill-opacity:1;stroke:none"
       id="ParkingSpace-58"
       width="43"
       height="22"
       x="-993.35712"
       y="-89.103882"
       transform="matrix(-0.96592582,-0.25881905,0.25881905,-0.96592582,0,0)" />
    <rect
       style="fill:#ff0505;fill-opacity:1;stroke:none"
       id="ParkingSpace-59"
       width="43"
       height="22"
       x="-825.23639"
       y="-380.42825"
       transform="matrix(-0.96592582,-0.25881905,0.25881905,-0.96592582,0,0)" />
  </g>
  <g
     inkscape:groupmode="layer"
     id="layer3"
     inkscape:label="Laag 2"
     style="display:inline">
    <path
       sodipodi:type="star"
       style="fill:#000000;fill-opacity:1;stroke:none"
       id="path3442"
       sodipodi:sides="3"
       sodipodi:cx="372.99884"
       sodipodi:cy="92.969826"
       sodipodi:r1="44.446712"
       sodipodi:r2="22.223356"
       sodipodi:arg1="3.1415927"
       sodipodi:arg2="4.1887902"
       inkscape:flatsided="false"
       inkscape:rounded="0"
       inkscape:randomized="0"
       d="m 328.55213,92.969824 33.33503,-19.245989 33.33504,-19.24599 0,38.491981 -10e-6,38.491984 -33.33503,-19.24599 z"
       transform="matrix(-0.135376,-0.03627389,0.07394243,-0.2759569,814.66171,162.71988)"
       inkscape:transform-center-y="-0.80613109"
       inkscape:transform-center-x="-0.081154272" />
    <path
       sodipodi:type="star"
       style="fill:#000000;fill-opacity:1;stroke:none"
       id="path3442-3"
       sodipodi:sides="3"
       sodipodi:cx="372.99884"
       sodipodi:cy="92.969826"
       sodipodi:r1="44.446712"
       sodipodi:r2="22.223356"
       sodipodi:arg1="3.1415927"
       sodipodi:arg2="4.1887902"
       inkscape:flatsided="false"
       inkscape:rounded="0"
       inkscape:randomized="0"
       d="m 328.55213,92.969824 33.33503,-19.245989 33.33504,-19.24599 0,38.491981 -10e-6,38.491984 -33.33503,-19.24599 z"
       inkscape:transform-center-x="-1.5573127"
       transform="matrix(-0.14015155,0,0,-0.28569161,73.72803,396.43112)" />
  </g>
</svg>
