<?xml version="1.0" encoding="UTF-8" standalone="no"?>
<!-- Created with Inkscape (http://www.inkscape.org/) -->

<svg
   xmlns:dc="http://purl.org/dc/elements/1.1/"
   xmlns:cc="http://creativecommons.org/ns#"
   xmlns:rdf="http://www.w3.org/1999/02/22-rdf-syntax-ns#"
   xmlns:svg="http://www.w3.org/2000/svg"
   xmlns="http://www.w3.org/2000/svg"
   xmlns:sodipodi="http://sodipodi.sourceforge.net/DTD/sodipodi-0.dtd"
   xmlns:inkscape="http://www.inkscape.org/namespaces/inkscape"
   max-height="100%"
   max-width="100%"
   viewBox="0 0 679.08662 307.0866"
   id="svg2"
   version="1.1"
   inkscape:version="0.91 r13725"
   sodipodi:docname="ParkingLot-1.svg">
  <defs
     id="defs4" />
  <sodipodi:namedview
     id="base"
     pagecolor="#ffffff"
     bordercolor="#666666"
     borderopacity="1.0"
     inkscape:pageopacity="0.0"
     inkscape:pageshadow="2"
     inkscape:zoom="0.7"
     inkscape:cx="119.52172"
     inkscape:cy="341.22761"
     inkscape:document-units="px"
     inkscape:current-layer="layer1"
     showgrid="false"
     inkscape:window-width="1920"
     inkscape:window-height="1017"
     inkscape:window-x="-8"
     inkscape:window-y="-8"
     inkscape:window-maximized="1"
     fit-margin-top="1"
     fit-margin-left="1"
     fit-margin-right="1"
     fit-margin-bottom="1" />
  <metadata
     id="metadata7">
    <rdf:RDF>
      <cc:Work
         rdf:about="">
        <dc:format>image/svg+xml</dc:format>
        <dc:type
           rdf:resource="http://purl.org/dc/dcmitype/StillImage" />
        <dc:title></dc:title>
      </cc:Work>
    </rdf:RDF>
  </metadata>
  <g
     inkscape:label="Laag 1"
     inkscape:groupmode="layer"
     id="layer1"
     transform="translate(-23.093778,-321.64102)"><rect
   style="fill:#ffffff;fill-opacity:1;stroke:none"
   id="rect4140"
   width="300"
   height="672"
   x="325.18433"
   y="-698.63708"
   transform="matrix(0,1,-1,0,0,0)" />
<rect
   id="rect4161"
   width="0"
   height="0"
   x="0"
   y="0" />



43=&quot;43.941635&quot;
     44.8=&quot;43.941635&quot;
     y=&quot;0&quot;
     x=&quot;0&quot;
     height=&quot;22&quot;
     width=&quot;43&quot;
     id=&quot;rect4146&quot;
     style=&quot;fill:#ff0505;fill-opacity:1;stroke:none&quot; /&gt;
<rect
   id="rect4168"
   width="0"
   height="0"
   x="0"
   y="0" />



43=&quot;43.941635&quot;
     44.8=&quot;43.941635&quot;
     y=&quot;0&quot;
     x=&quot;0&quot;
     height=&quot;22&quot;
     width=&quot;43&quot;
     id=&quot;rect4146&quot;
     style=&quot;fill:#ff0505;fill-opacity:1;stroke:none&quot; /&gt;
<rect
   id="rect4184"
   width="0"
   height="0"
   x="0"
   y="0" />



43=&quot;43.941635&quot;
     44.8=&quot;43.941635&quot;
     y=&quot;0&quot;
     x=&quot;0&quot;
     height=&quot;22&quot;
     width=&quot;43&quot;
     id=&quot;rect4146&quot;
     style=&quot;fill:#ff0505;fill-opacity:1;stroke:none&quot; /&gt;
<rect
   id="rect4200"
   width="0"
   height="0"
   x="0"
   y="0" />



43=&quot;43.941635&quot;
     44.8=&quot;43.941635&quot;
     y=&quot;0&quot;
     x=&quot;0&quot;
     height=&quot;22&quot;
     width=&quot;43&quot;
     id=&quot;rect4146&quot;
     style=&quot;fill:#ff0505;fill-opacity:1;stroke:none&quot; /&gt;
<rect
   id="rect4216"
   width="0"
   height="0"
   x="0"
   y="0" />



43=&quot;43.941635&quot;
     44.8=&quot;43.941635&quot;
     y=&quot;0&quot;
     x=&quot;0&quot;
     height=&quot;22&quot;
     width=&quot;43&quot;
     id=&quot;rect4146&quot;
     style=&quot;fill:#ff0505;fill-opacity:1;stroke:none&quot; /&gt;
</g>
  <g
     inkscape:groupmode="layer"
     id="layer2"
     inkscape:label="Laag 2"
     transform="translate(-23.093778,-321.64102)">43=&quot;43.941635&quot;
     44.8=&quot;43.941635&quot;
     y=&quot;0&quot;
     x=&quot;0&quot;
     height=&quot;22&quot;
     width=&quot;43&quot;
     id=&quot;rect4146&quot;
     style=&quot;fill:#ff0505;fill-opacity:1;stroke:none&quot; /&gt;
<rect
   style="fill:#ff0505;fill-opacity:1;stroke:none"
   id="ParkingSpace-1"
   width="43"
   height="22"
   x="476.17972"
   y="-649.6839"
   transform="matrix(0,1,-1,0,0,0)" />
<rect
   style="fill:#ff0505;fill-opacity:1;stroke:none"
   id="ParkingSpace-2"
   width="43"
   height="22"
   x="476.17773"
   y="-625.6922"
   transform="matrix(0,1,-1,0,0,0)" />
<rect
   style="fill:#ff0505;fill-opacity:1;stroke:none"
   id="ParkingSpace-3"
   width="43"
   height="22"
   x="476.18066"
   y="-601.69092"
   transform="matrix(0,1,-1,0,0,0)" />
<rect
   style="fill:#ff0505;fill-opacity:1;stroke:none"
   id="ParkingSpace-4"
   width="43"
   height="22"
   x="476.17868"
   y="-577.69922"
   transform="matrix(0,1,-1,0,0,0)" />
<rect
   style="fill:#ff0505;fill-opacity:1;stroke:none"
   id="ParkingSpace-5"
   width="43"
   height="22"
   x="476.16904"
   y="-553.71191"
   transform="matrix(0,1,-1,0,0,0)" />
<rect
   style="fill:#ff0505;fill-opacity:1;stroke:none"
   id="ParkingSpace-6"
   width="43"
   height="22"
   x="476.16705"
   y="-529.72034"
   transform="matrix(0,1,-1,0,0,0)" />
<rect
   style="fill:#ff0505;fill-opacity:1;stroke:none"
   id="ParkingSpace-7"
   width="43"
   height="22"
   x="476.16998"
   y="-505.71899"
   transform="matrix(0,1,-1,0,0,0)" />
<rect
   style="fill:#ff0505;fill-opacity:1;stroke:none"
   id="ParkingSpace-8"
   width="43"
   height="22"
   x="476.168"
   y="-481.72729"
   transform="matrix(0,1,-1,0,0,0)" />
<rect
   style="fill:#ff0505;fill-opacity:1;stroke:none"
   id="ParkingSpace-9"
   width="43"
   height="22"
   x="476.16666"
   y="-457.72388"
   transform="matrix(0,1,-1,0,0,0)" />
<rect
   style="fill:#ff0505;fill-opacity:1;stroke:none"
   id="ParkingSpace-10"
   width="43"
   height="22"
   x="476.16467"
   y="-433.73218"
   transform="matrix(0,1,-1,0,0,0)" />
<rect
   style="fill:#ff0505;fill-opacity:1;stroke:none"
   id="ParkingSpace-11"
   width="43"
   height="22"
   x="476.16763"
   y="-409.73096"
   transform="matrix(0,1,-1,0,0,0)" />
<rect
   style="fill:#ff0505;fill-opacity:1;stroke:none"
   id="ParkingSpace-12"
   width="43"
   height="22"
   x="476.16565"
   y="-385.73923"
   transform="matrix(0,1,-1,0,0,0)" />
<rect
   style="fill:#ff0505;fill-opacity:1;stroke:none"
   id="ParkingSpace-13"
   width="43"
   height="22"
   x="476.15598"
   y="-361.75204"
   transform="matrix(0,1,-1,0,0,0)" />
<rect
   style="fill:#ff0505;fill-opacity:1;stroke:none"
   id="ParkingSpace-14"
   width="43"
   height="22"
   x="476.15399"
   y="-337.76035"
   transform="matrix(0,1,-1,0,0,0)" />
<rect
   style="fill:#ff0505;fill-opacity:1;stroke:none"
   id="ParkingSpace-15"
   width="43"
   height="22"
   x="476.15695"
   y="-313.759"
   transform="matrix(0,1,-1,0,0,0)" />
<rect
   style="fill:#ff0505;fill-opacity:1;stroke:none"
   id="ParkingSpace-16"
   width="43"
   height="22"
   x="476.15497"
   y="-289.7673"
   transform="matrix(0,1,-1,0,0,0)" />
<rect
   style="fill:#ff0505;fill-opacity:1;stroke:none"
   id="ParkingSpace-17"
   width="43"
   height="22"
   x="476.15778"
   y="-265.78116"
   transform="matrix(0,1,-1,0,0,0)" />
<rect
   style="fill:#ff0505;fill-opacity:1;stroke:none"
   id="ParkingSpace-18"
   width="43"
   height="22"
   x="476.15579"
   y="-241.78946"
   transform="matrix(0,1,-1,0,0,0)" />
<rect
   style="fill:#ff0505;fill-opacity:1;stroke:none"
   id="ParkingSpace-19"
   width="43"
   height="22"
   x="476.15875"
   y="-217.78818"
   transform="matrix(0,1,-1,0,0,0)" />
<rect
   style="fill:#ff0505;fill-opacity:1;stroke:none"
   id="ParkingSpace-20"
   width="43"
   height="22"
   x="476.15677"
   y="-193.79648"
   transform="matrix(0,1,-1,0,0,0)" />
<rect
   style="fill:#ff0505;fill-opacity:1;stroke:none"
   id="ParkingSpace-21"
   width="43"
   height="22"
   x="476.14709"
   y="-169.80923"
   transform="matrix(0,1,-1,0,0,0)" />
<rect
   style="fill:#ff0505;fill-opacity:1;stroke:none"
   id="ParkingSpace-22"
   width="43"
   height="22"
   x="476.14511"
   y="-145.81754"
   transform="matrix(0,1,-1,0,0,0)" />
<rect
   style="fill:#ff0505;fill-opacity:1;stroke:none"
   id="ParkingSpace-23"
   width="43"
   height="22"
   x="476.14807"
   y="-121.81619"
   transform="matrix(0,1,-1,0,0,0)" />
<rect
   style="fill:#ff0505;fill-opacity:1;stroke:none"
   id="ParkingSpace-24"
   width="43"
   height="22"
   x="476.14609"
   y="-97.824493"
   transform="matrix(0,1,-1,0,0,0)" />
<rect
   style="fill:#ff0505;fill-opacity:1;stroke:none"
   id="ParkingSpace-25"
   width="43"
   height="22"
   x="326.19235"
   y="-697.62878"
   transform="matrix(0,1,-1,0,0,0)" />
<rect
   style="fill:#ff0505;fill-opacity:1;stroke:none"
   id="ParkingSpace-26"
   width="43"
   height="22"
   x="326.19034"
   y="-673.63708"
   transform="matrix(0,1,-1,0,0,0)" />
<rect
   style="fill:#ff0505;fill-opacity:1;stroke:none"
   id="ParkingSpace-27"
   width="43"
   height="22"
   x="326.19327"
   y="-649.63586"
   transform="matrix(0,1,-1,0,0,0)" />
<rect
   style="fill:#ff0505;fill-opacity:1;stroke:none"
   id="ParkingSpace-28"
   width="43"
   height="22"
   x="326.19131"
   y="-625.64417"
   transform="matrix(0,1,-1,0,0,0)" />
<rect
   style="fill:#ff0505;fill-opacity:1;stroke:none"
   id="ParkingSpace-29"
   width="43"
   height="22"
   x="326.18161"
   y="-601.65686"
   transform="matrix(0,1,-1,0,0,0)" />
<rect
   style="fill:#ff0505;fill-opacity:1;stroke:none"
   id="ParkingSpace-30"
   width="43"
   height="22"
   x="326.17966"
   y="-577.66516"
   transform="matrix(0,1,-1,0,0,0)" />
<rect
   style="fill:#ff0505;fill-opacity:1;stroke:none"
   id="ParkingSpace-31"
   width="43"
   height="22"
   x="326.18259"
   y="-553.66394"
   transform="matrix(0,1,-1,0,0,0)" />
<rect
   style="fill:#ff0505;fill-opacity:1;stroke:none"
   id="ParkingSpace-32"
   width="43"
   height="22"
   x="326.18063"
   y="-529.67224"
   transform="matrix(0,1,-1,0,0,0)" />
<rect
   style="fill:#ff0505;fill-opacity:1;stroke:none"
   id="ParkingSpace-33"
   width="43"
   height="22"
   x="326.17929"
   y="-505.6687"
   transform="matrix(0,1,-1,0,0,0)" />
<rect
   style="fill:#ff0505;fill-opacity:1;stroke:none"
   id="ParkingSpace-34"
   width="43"
   height="22"
   x="326.17728"
   y="-481.677"
   transform="matrix(0,1,-1,0,0,0)" />
<rect
   style="fill:#ff0505;fill-opacity:1;stroke:none"
   id="ParkingSpace-35"
   width="43"
   height="22"
   x="326.18027"
   y="-457.67578"
   transform="matrix(0,1,-1,0,0,0)" />
<rect
   style="fill:#ff0505;fill-opacity:1;stroke:none"
   id="ParkingSpace-36"
   width="43"
   height="22"
   x="326.17825"
   y="-433.68408"
   transform="matrix(0,1,-1,0,0,0)" />
<rect
   style="fill:#ff0505;fill-opacity:1;stroke:none"
   id="ParkingSpace-37"
   width="43"
   height="22"
   x="326.16861"
   y="-409.69678"
   transform="matrix(0,1,-1,0,0,0)" />
<rect
   style="fill:#ff0505;fill-opacity:1;stroke:none"
   id="ParkingSpace-38"
   width="43"
   height="22"
   x="326.1666"
   y="-385.70514"
   transform="matrix(0,1,-1,0,0,0)" />
<rect
   style="fill:#ff0505;fill-opacity:1;stroke:none"
   id="ParkingSpace-39"
   width="43"
   height="22"
   x="326.16959"
   y="-361.70386"
   transform="matrix(0,1,-1,0,0,0)" />
<rect
   style="fill:#ff0505;fill-opacity:1;stroke:none"
   id="ParkingSpace-40"
   width="43"
   height="22"
   x="326.16757"
   y="-337.71216"
   transform="matrix(0,1,-1,0,0,0)" />
<rect
   style="fill:#ff0505;fill-opacity:1;stroke:none"
   id="ParkingSpace-41"
   width="43"
   height="22"
   x="326.17038"
   y="-313.7261"
   transform="matrix(0,1,-1,0,0,0)" />
<rect
   style="fill:#ff0505;fill-opacity:1;stroke:none"
   id="ParkingSpace-42"
   width="43"
   height="22"
   x="326.16843"
   y="-289.73441"
   transform="matrix(0,1,-1,0,0,0)" />
<rect
   style="fill:#ff0505;fill-opacity:1;stroke:none"
   id="ParkingSpace-43"
   width="43"
   height="22"
   x="326.17136"
   y="-265.73312"
   transform="matrix(0,1,-1,0,0,0)" />
<rect
   style="fill:#ff0505;fill-opacity:1;stroke:none"
   id="ParkingSpace-44"
   width="43"
   height="22"
   x="326.1694"
   y="-241.74142"
   transform="matrix(0,1,-1,0,0,0)" />
<rect
   style="fill:#ff0505;fill-opacity:1;stroke:none"
   id="ParkingSpace-45"
   width="43"
   height="22"
   x="326.1597"
   y="-217.75418"
   transform="matrix(0,1,-1,0,0,0)" />
<rect
   style="fill:#ff0505;fill-opacity:1;stroke:none"
   id="ParkingSpace-46"
   width="43"
   height="22"
   x="326.15768"
   y="-193.76248"
   transform="matrix(0,1,-1,0,0,0)" />
<rect
   style="fill:#ff0505;fill-opacity:1;stroke:none"
   id="ParkingSpace-47"
   width="43"
   height="22"
   x="326.16068"
   y="-169.7612"
   transform="matrix(0,1,-1,0,0,0)" />
<rect
   style="fill:#ff0505;fill-opacity:1;stroke:none"
   id="ParkingSpace-48"
   width="43"
   height="22"
   x="326.15866"
   y="-145.7695"
   transform="matrix(0,1,-1,0,0,0)" />
<rect
   style="fill:#ff0505;fill-opacity:1;stroke:none"
   id="ParkingSpace-49"
   width="43"
   height="22"
   x="326.15732"
   y="-121.76602"
   transform="matrix(0,1,-1,0,0,0)" />
<rect
   style="fill:#ff0505;fill-opacity:1;stroke:none"
   id="ParkingSpace-50"
   width="43"
   height="22"
   x="326.15536"
   y="-97.774323"
   transform="matrix(0,1,-1,0,0,0)" />
<rect
   style="fill:#ff0505;fill-opacity:1;stroke:none"
   id="ParkingSpace-51"
   width="43"
   height="22"
   x="326.15829"
   y="-73.773102"
   transform="matrix(0,1,-1,0,0,0)" />
<rect
   style="fill:#ff0505;fill-opacity:1;stroke:none"
   id="ParkingSpace-52"
   width="43"
   height="22"
   x="326.15634"
   y="-49.781403"
   transform="matrix(0,1,-1,0,0,0)" />
<rect
   style="fill:#ff0505;fill-opacity:1;stroke:none"
   id="ParkingSpace-53"
   width="43"
   height="22"
   x="431.12686"
   y="-121.80112"
   transform="matrix(0,1,-1,0,0,0)" />
<rect
   style="fill:#ff0505;fill-opacity:1;stroke:none"
   id="ParkingSpace-54"
   width="43"
   height="22"
   x="581.15765"
   y="-601.66937"
   transform="matrix(0,1,-1,0,0,0)" />
<rect
   style="fill:#ff0505;fill-opacity:1;stroke:none"
   id="ParkingSpace-55"
   width="43"
   height="22"
   x="581.15564"
   y="-577.67773"
   transform="matrix(0,1,-1,0,0,0)" />
<rect
   style="fill:#ff0505;fill-opacity:1;stroke:none"
   id="ParkingSpace-56"
   width="43"
   height="22"
   x="581.15857"
   y="-553.67639"
   transform="matrix(0,1,-1,0,0,0)" />
<rect
   style="fill:#ff0505;fill-opacity:1;stroke:none"
   id="ParkingSpace-57"
   width="43"
   height="22"
   x="581.15662"
   y="-529.68469"
   transform="matrix(0,1,-1,0,0,0)" />
<rect
   style="fill:#ff0505;fill-opacity:1;stroke:none"
   id="ParkingSpace-58"
   width="43"
   height="22"
   x="581.15527"
   y="-505.68127"
   transform="matrix(0,1,-1,0,0,0)" />
<rect
   style="fill:#ff0505;fill-opacity:1;stroke:none"
   id="ParkingSpace-59"
   width="43"
   height="22"
   x="581.15332"
   y="-481.68958"
   transform="matrix(0,1,-1,0,0,0)" />
<rect
   style="fill:#ff0505;fill-opacity:1;stroke:none"
   id="ParkingSpace-60"
   width="43"
   height="22"
   x="581.15625"
   y="-457.68829"
   transform="matrix(0,1,-1,0,0,0)" />
<rect
   style="fill:#ff0505;fill-opacity:1;stroke:none"
   id="ParkingSpace-61"
   width="43"
   height="22"
   x="581.1543"
   y="-433.69659"
   transform="matrix(0,1,-1,0,0,0)" />
<rect
   style="fill:#ff0505;fill-opacity:1;stroke:none"
   id="ParkingSpace-62"
   width="43"
   height="22"
   x="581.14459"
   y="-409.70935"
   transform="matrix(0,1,-1,0,0,0)" />
<rect
   style="fill:#ff0505;fill-opacity:1;stroke:none"
   id="ParkingSpace-63"
   width="43"
   height="22"
   x="581.14258"
   y="-385.71765"
   transform="matrix(0,1,-1,0,0,0)" />
<rect
   style="fill:#ff0505;fill-opacity:1;stroke:none"
   id="ParkingSpace-64"
   width="43"
   height="22"
   x="581.14557"
   y="-361.71637"
   transform="matrix(0,1,-1,0,0,0)" />
<rect
   style="fill:#ff0505;fill-opacity:1;stroke:none"
   id="ParkingSpace-65"
   width="43"
   height="22"
   x="581.14355"
   y="-337.72467"
   transform="matrix(0,1,-1,0,0,0)" />
<rect
   style="fill:#ff0505;fill-opacity:1;stroke:none"
   id="ParkingSpace-66"
   width="43"
   height="22"
   x="581.14636"
   y="-313.73849"
   transform="matrix(0,1,-1,0,0,0)" />
<rect
   style="fill:#ff0505;fill-opacity:1;stroke:none"
   id="ParkingSpace-67"
   width="43"
   height="22"
   x="581.14441"
   y="-289.7468"
   transform="matrix(0,1,-1,0,0,0)" />
<rect
   style="fill:#ff0505;fill-opacity:1;stroke:none"
   id="ParkingSpace-68"
   width="43"
   height="22"
   x="581.14734"
   y="-265.74551"
   transform="matrix(0,1,-1,0,0,0)" />
<rect
   style="fill:#ff0505;fill-opacity:1;stroke:none"
   id="ParkingSpace-69"
   width="43"
   height="22"
   x="581.14539"
   y="-241.75381"
   transform="matrix(0,1,-1,0,0,0)" />
<rect
   style="fill:#ff0505;fill-opacity:1;stroke:none"
   id="ParkingSpace-70"
   width="43"
   height="22"
   x="581.13574"
   y="-217.76657"
   transform="matrix(0,1,-1,0,0,0)" />
<rect
   style="fill:#ff0505;fill-opacity:1;stroke:none"
   id="ParkingSpace-71"
   width="43"
   height="22"
   x="581.13373"
   y="-193.77487"
   transform="matrix(0,1,-1,0,0,0)" />
<rect
   style="fill:#ff0505;fill-opacity:1;stroke:none"
   id="ParkingSpace-72"
   width="43"
   height="22"
   x="581.13672"
   y="-169.77359"
   transform="matrix(0,1,-1,0,0,0)" />
<rect
   style="fill:#ff0505;fill-opacity:1;stroke:none"
   id="ParkingSpace-73"
   width="43"
   height="22"
   x="581.1347"
   y="-145.78189"
   transform="matrix(0,1,-1,0,0,0)" />
<rect
   style="fill:#ff0505;fill-opacity:1;stroke:none"
   id="ParkingSpace-74"
   width="43"
   height="22"
   x="581.13336"
   y="-121.77841"
   transform="matrix(0,1,-1,0,0,0)" />
<rect
   style="fill:#ff0505;fill-opacity:1;stroke:none"
   id="ParkingSpace-75"
   width="43"
   height="22"
   x="581.13135"
   y="-97.786713"
   transform="matrix(0,1,-1,0,0,0)" />
<rect
   style="fill:#ff0505;fill-opacity:1;stroke:none"
   id="ParkingSpace-76"
   width="43"
   height="22"
   x="581.13434"
   y="-73.785492"
   transform="matrix(0,1,-1,0,0,0)" />
<rect
   style="fill:#ff0505;fill-opacity:1;stroke:none"
   id="ParkingSpace-77"
   width="43"
   height="22"
   x="581.13232"
   y="-49.793793"
   transform="matrix(0,1,-1,0,0,0)" />
<rect
   style="fill:#ff0505;fill-opacity:1;stroke:none"
   id="ParkingSpace-78"
   width="43"
   height="22"
   x="431.12643"
   y="-97.827301"
   transform="matrix(0,1,-1,0,0,0)" />
<rect
   style="fill:#ff0505;fill-opacity:1;stroke:none"
   id="ParkingSpace-79"
   width="43"
   height="22"
   x="431.19235"
   y="-649.63806"
   transform="matrix(0,1,-1,0,0,0)" />
<rect
   style="fill:#ff0505;fill-opacity:1;stroke:none"
   id="ParkingSpace-80"
   width="43"
   height="22"
   x="431.1904"
   y="-625.64636"
   transform="matrix(0,1,-1,0,0,0)" />
<rect
   style="fill:#ff0505;fill-opacity:1;stroke:none"
   id="ParkingSpace-81"
   width="43"
   height="22"
   x="431.19333"
   y="-601.64502"
   transform="matrix(0,1,-1,0,0,0)" />
<rect
   style="fill:#ff0505;fill-opacity:1;stroke:none"
   id="ParkingSpace-82"
   width="43"
   height="22"
   x="431.19131"
   y="-577.65332"
   transform="matrix(0,1,-1,0,0,0)" />
<rect
   style="fill:#ff0505;fill-opacity:1;stroke:none"
   id="ParkingSpace-83"
   width="43"
   height="22"
   x="431.18167"
   y="-553.66602"
   transform="matrix(0,1,-1,0,0,0)" />
<rect
   style="fill:#ff0505;fill-opacity:1;stroke:none"
   id="ParkingSpace-84"
   width="43"
   height="22"
   x="431.17966"
   y="-529.67444"
   transform="matrix(0,1,-1,0,0,0)" />
<rect
   style="fill:#ff0505;fill-opacity:1;stroke:none"
   id="ParkingSpace-85"
   width="43"
   height="22"
   x="431.18259"
   y="-505.67316"
   transform="matrix(0,1,-1,0,0,0)" />
<rect
   style="fill:#ff0505;fill-opacity:1;stroke:none"
   id="ParkingSpace-86"
   width="43"
   height="22"
   x="431.18063"
   y="-481.68146"
   transform="matrix(0,1,-1,0,0,0)" />
<rect
   style="fill:#ff0505;fill-opacity:1;stroke:none"
   id="ParkingSpace-87"
   width="43"
   height="22"
   x="431.17929"
   y="-457.67798"
   transform="matrix(0,1,-1,0,0,0)" />
<rect
   style="fill:#ff0505;fill-opacity:1;stroke:none"
   id="ParkingSpace-88"
   width="43"
   height="22"
   x="431.17734"
   y="-433.68628"
   transform="matrix(0,1,-1,0,0,0)" />
<rect
   style="fill:#ff0505;fill-opacity:1;stroke:none"
   id="ParkingSpace-89"
   width="43"
   height="22"
   x="431.18027"
   y="-409.68506"
   transform="matrix(0,1,-1,0,0,0)" />
<rect
   style="fill:#ff0505;fill-opacity:1;stroke:none"
   id="ParkingSpace-90"
   width="43"
   height="22"
   x="431.17831"
   y="-385.69333"
   transform="matrix(0,1,-1,0,0,0)" />
<rect
   style="fill:#ff0505;fill-opacity:1;stroke:none"
   id="ParkingSpace-91"
   width="43"
   height="22"
   x="431.16861"
   y="-361.70615"
   transform="matrix(0,1,-1,0,0,0)" />
<rect
   style="fill:#ff0505;fill-opacity:1;stroke:none"
   id="ParkingSpace-92"
   width="43"
   height="22"
   x="431.1666"
   y="-337.71445"
   transform="matrix(0,1,-1,0,0,0)" />
<rect
   style="fill:#ff0505;fill-opacity:1;stroke:none"
   id="ParkingSpace-93"
   width="43"
   height="22"
   x="431.16959"
   y="-313.7131"
   transform="matrix(0,1,-1,0,0,0)" />
<rect
   style="fill:#ff0505;fill-opacity:1;stroke:none"
   id="ParkingSpace-94"
   width="43"
   height="22"
   x="431.16757"
   y="-289.72141"
   transform="matrix(0,1,-1,0,0,0)" />
<rect
   style="fill:#ff0505;fill-opacity:1;stroke:none"
   id="ParkingSpace-95"
   width="43"
   height="22"
   x="431.17038"
   y="-265.73526"
   transform="matrix(0,1,-1,0,0,0)" />
<rect
   style="fill:#ff0505;fill-opacity:1;stroke:none"
   id="ParkingSpace-96"
   width="43"
   height="22"
   x="431.16843"
   y="-241.74356"
   transform="matrix(0,1,-1,0,0,0)" />
<rect
   style="fill:#ff0505;fill-opacity:1;stroke:none"
   id="ParkingSpace-97"
   width="43"
   height="22"
   x="431.17136"
   y="-217.74228"
   transform="matrix(0,1,-1,0,0,0)" />
<rect
   style="fill:#ff0505;fill-opacity:1;stroke:none"
   id="ParkingSpace-98"
   width="43"
   height="22"
   x="431.1694"
   y="-193.75058"
   transform="matrix(0,1,-1,0,0,0)" />
<rect
   style="fill:#ff0505;fill-opacity:1;stroke:none"
   id="ParkingSpace-99"
   width="43"
   height="22"
   x="431.15976"
   y="-169.76334"
   transform="matrix(0,1,-1,0,0,0)" />
<rect
   style="fill:#ff0505;fill-opacity:1;stroke:none"
   id="ParkingSpace-100"
   width="43"
   height="22"
   x="431.15775"
   y="-145.77164"
   transform="matrix(0,1,-1,0,0,0)" />
<path
   sodipodi:type="star"
   style="fill:#000000;fill-opacity:1;stroke:none"
   id="path3442"
   sodipodi:sides="3"
   sodipodi:cx="372.99884"
   sodipodi:cy="92.969826"
   sodipodi:r1="44.446712"
   sodipodi:r2="22.223356"
   sodipodi:arg1="3.1415927"
   sodipodi:arg2="4.1887902"
   inkscape:flatsided="false"
   inkscape:rounded="0"
   inkscape:randomized="0"
   d="m 328.55213,92.969824 33.33503,-19.245989 33.33504,-19.24599 0,38.491981 -10e-6,38.491984 -33.33503,-19.24599 z"
   transform="matrix(0,0.14015155,-0.28569161,0,700.71803,563.73247)"
   inkscape:transform-center-y="-1.5573143" />
<path
   sodipodi:type="star"
   style="fill:#000000;fill-opacity:1;stroke:none"
   id="path3442-3"
   sodipodi:sides="3"
   sodipodi:cx="372.99884"
   sodipodi:cy="92.969826"
   sodipodi:r1="44.446712"
   sodipodi:r2="22.223356"
   sodipodi:arg1="3.1415927"
   sodipodi:arg2="4.1887902"
   inkscape:flatsided="false"
   inkscape:rounded="0"
   inkscape:randomized="0"
   d="m 328.55213,92.969824 33.33503,-19.245989 33.33504,-19.24599 0,38.491981 -10e-6,38.491984 -33.33503,-19.24599 z"
   transform="matrix(0,-0.14015155,0.28569161,0,601.05398,668.27972)"
   inkscape:transform-center-y="1.557312" />
</g>
</svg>
