<?xml version="1.0" encoding="UTF-8" standalone="no"?>
<!-- Created with Inkscape (http://www.inkscape.org/) -->

<svg
   xmlns:dc="http://purl.org/dc/elements/1.1/"
   xmlns:cc="http://creativecommons.org/ns#"
   xmlns:rdf="http://www.w3.org/1999/02/22-rdf-syntax-ns#"
   xmlns:svg="http://www.w3.org/2000/svg"
   xmlns="http://www.w3.org/2000/svg"
   xmlns:sodipodi="http://sodipodi.sourceforge.net/DTD/sodipodi-0.dtd"
   xmlns:inkscape="http://www.inkscape.org/namespaces/inkscape"
   height="100%"
   width="100%"
   viewBox="0 0 780.60138 454.33354"
   id="svg3460"
   version="1.1"
   inkscape:version="0.91 r13725"
   sodipodi:docname="Area_2.svg">
  <defs
     id="defs3462" />
  <sodipodi:namedview
     id="base"
     pagecolor="#ffffff"
     bordercolor="#666666"
     borderopacity="1.0"
     inkscape:pageopacity="0.0"
     inkscape:pageshadow="2"
     inkscape:zoom="0.9899495"
     inkscape:cx="280.34445"
     inkscape:cy="161.2373"
     inkscape:document-units="px"
     inkscape:current-layer="layer1"
     showgrid="false"
     fit-margin-left="1"
     fit-margin-top="1"
     fit-margin-bottom="1"
     fit-margin-right="1"
     inkscape:window-width="1920"
     inkscape:window-height="1017"
     inkscape:window-x="-8"
     inkscape:window-y="-8"
     inkscape:window-maximized="1" />
  <metadata
     id="metadata3465">
    <rdf:RDF>
      <cc:Work
         rdf:about="">
        <dc:format>image/svg+xml</dc:format>
        <dc:type
           rdf:resource="http://purl.org/dc/dcmitype/StillImage" />
        <dc:title />
      </cc:Work>
    </rdf:RDF>
  </metadata>
  <g
     inkscape:label="Laag 1"
     inkscape:groupmode="layer"
     id="layer1"
     transform="translate(-167.83875,-162.6739)"
     style="display:inline">
    <path
       style="fill:#ffffff;stroke:#fdffff;stroke-width:0.71428573;stroke-opacity:1"
       d="m 507.70112,452.02939 c -0.19423,-0.50613 -0.26748,-9.62606 -0.16278,-20.26651 l 0.19036,-19.34627 11.40719,3.09208 c 6.27395,1.70065 11.60777,2.85745 11.85293,2.5707 0.54802,-0.64102 5.85406,-20.95043 5.5381,-21.19762 -0.12474,-0.0976 -6.73384,-1.88862 -14.6869,-3.98008 l -14.46012,-3.80264 -0.18274,-57.91338 -0.18274,-57.91338 -1.92633,-0.22235 c -2.1757,-0.25114 -1.88024,0.54846 -7.04397,-19.06337 -1.655,-6.28571 -3.20659,-11.79184 -3.44798,-12.23583 -0.30649,-0.56377 -3.54979,0.0336 -10.75289,1.98069 -5.67271,1.53337 -10.4606,2.93453 -10.63975,3.11368 -0.17915,0.17915 1.18933,5.98924 3.04107,12.91131 1.85175,6.92206 3.1668,12.78558 2.92235,13.03003 -0.72627,0.72627 -1.6464,-1.31995 -2.90743,-6.4657 -0.65328,-2.66579 -1.4227,-4.99208 -1.70982,-5.16953 -0.51971,-0.3212 -20.48874,4.83646 -21.10277,5.45048 -0.17728,0.17729 0.0138,1.53977 0.42466,3.02773 0.41085,1.48797 0.60975,2.84263 0.44202,3.01036 -0.16773,0.16773 -6.975,0.21796 -15.12727,0.11159 l -14.82229,-0.19338 14.18234,-13.53645 c 36.37422,-34.71768 93.37516,-90.07462 201.57043,-195.756825 39.81344,-38.888697 74.38505,-72.5272505 76.82577,-74.752341 l 4.4377,-4.045621 32.03803,-0.781056 c 17.6209,-0.42958 32.12067,-0.698337 32.2217,-0.597237 0.10102,0.101101 0.26897,43.033409 0.37322,95.405133 l 0.18953,95.221307 -57.84332,57.99298 c -31.81383,31.89613 -94.39725,94.72394 -139.07425,139.61735 -47.6996,47.93064 -81.3767,81.24453 -81.58405,80.70415 z m 46.31045,-64.37125 c 1.54678,-5.79082 2.69448,-10.62705 2.55045,-10.74719 -0.50535,-0.42151 -41.46858,-11.24145 -41.69324,-11.01276 -0.51146,0.52065 -5.65844,21.23193 -5.34117,21.4927 0.60642,0.49839 40.31819,11.09541 41.00778,10.94285 0.3651,-0.0808 1.92938,-4.8848 3.47618,-10.6756 z m 17.70455,-12.06442 c 3.85898,-14.14507 4.81334,-18.04448 4.49432,-18.3635 -0.43296,-0.43296 -41.21951,-11.45825 -41.4682,-11.20956 -0.27785,0.27784 -5.91421,21.44998 -5.74294,21.57246 0.35715,0.2554 40.2266,10.92493 41.0233,10.97832 0.47593,0.0319 1.23801,-1.30808 1.69352,-2.97772 z m 20.64233,-22.85715 c 0.86459,-3.24107 2.15673,-8.03253 2.87144,-10.6477 1.20253,-4.40015 1.21099,-4.77938 0.11343,-5.08366 -18.04079,-5.00159 -39.74427,-10.53927 -40.36683,-10.29967 -0.83774,0.32241 -6.4987,20.41108 -5.91602,20.99375 0.44732,0.44733 39.11196,10.82193 40.55427,10.88163 0.87593,0.0363 1.5686,-1.43921 2.74371,-5.84435 z m 21.12992,-24.65417 c 1.46855,-5.60443 2.53777,-10.3222 2.37604,-10.48393 -0.33927,-0.33928 -40.19096,-11.1119 -41.10677,-11.1119 -0.80264,0 -6.25387,20.65534 -5.61946,21.29277 0.81784,0.82174 40.69788,11.39984 41.20674,10.93 0.26035,-0.24037 1.6749,-5.0225 3.14345,-10.62694 z m 17.75365,-12.48868 c 3.41712,-12.1667 4.62371,-17.32425 4.15674,-17.76787 -0.28996,-0.27546 -9.20577,-2.79805 -19.81292,-5.60574 -10.60714,-2.8077 -19.80125,-5.2531 -20.43135,-5.43424 -0.9325,-0.26805 -1.64728,1.56724 -3.84182,9.86426 -1.4829,5.60647 -2.73522,10.49596 -2.78293,10.86554 -0.0655,0.50755 38.47075,11.54292 41.1433,11.78192 0.28366,0.0254 0.9897,-1.64137 1.56898,-3.70387 z m 19.63305,-18.92858 c 0.38578,-1.47321 1.65977,-6.28875 2.83107,-10.70118 l 2.12964,-8.02262 -2.98211,-0.8222 c -15.59781,-4.30047 -38.73978,-10.40395 -38.91075,-10.26234 -0.3455,0.28615 -5.9105,21.24389 -5.6955,21.44922 0.36813,0.35157 39.47913,10.8832 40.70375,10.96051 0.83855,0.0529 1.44275,-0.76403 1.9239,-2.60139 z m 21.86758,-27.68534 c 1.49083,-5.70015 2.53758,-10.53693 2.32612,-10.7484 -0.45963,-0.45963 -39.55868,-11.03221 -40.77856,-11.02673 -0.90776,0.004 -6.6449,20.50803 -5.9365,21.21644 0.5841,0.58409 38.33852,10.79643 40.16953,10.86561 1.35085,0.051 1.79261,-1.02808 4.21941,-10.30692 z m -156.97823,-3.25585 c 5.20535,-1.34428 9.46428,-2.80385 9.46428,-3.24349 0,-1.20352 -10.58366,-40.38706 -11.02903,-40.83244 -0.21229,-0.2123 -5.04975,0.83378 -10.7499,2.3246 -7.7373,2.02363 -10.36393,2.99211 -10.36393,3.82137 0,1.03814 8.46966,33.33189 10.11765,38.57737 0.5247,1.67009 1.10099,2.29666 1.92294,2.09076 0.64554,-0.1617 5.43263,-1.39388 10.63799,-2.73817 z m 176.7012,-16.06459 c 1.48622,-5.47717 2.71592,-10.30025 2.73265,-10.71794 0.0275,-0.68558 -41.23249,-12.16542 -41.74628,-11.61515 -0.18747,0.20078 -5.30157,19.19645 -5.60967,20.83647 -0.11152,0.59357 39.96747,11.85029 41.26087,11.58867 0.36311,-0.0735 1.8762,-4.61487 3.36243,-10.09205 z m -157.3295,-3.60481 c 5.35449,-1.41619 9.83271,-2.66525 9.9516,-2.77568 0.21354,-0.19837 -10.60983,-41.1906 -11.00947,-41.69704 -0.11366,-0.14403 -4.96381,1.01631 -10.7781,2.57854 -8.17576,2.19675 -10.55024,3.09828 -10.47786,3.9782 0.0515,0.62577 2.46219,9.99212 5.35715,20.81411 3.64486,13.62532 5.56457,19.67641 6.24239,19.67655 0.53836,1.1e-4 5.35979,-1.1585 10.71429,-2.57468 z m 175.12887,-9.03226 c 0.4431,-1.66964 1.72028,-6.41072 2.83819,-10.53572 1.11791,-4.125 1.8124,-7.69719 1.54332,-7.9382 -0.61316,-0.5492 -41.0605,-11.37147 -41.36435,-11.06763 -0.34544,0.34544 -5.95756,21.34768 -5.74328,21.49308 0.39146,0.26563 40.22631,10.95763 41.05516,11.01955 0.47593,0.0356 1.22786,-1.30144 1.67096,-2.97108 z m -155.059,-10.89019 c 5.29109,-1.41697 9.68293,-2.64009 9.75964,-2.71805 0.22726,-0.23096 -10.81609,-41.10188 -11.213,-41.49878 -0.36924,-0.36925 -20.50475,4.88545 -21.13477,5.51548 -0.18889,0.1889 2.15754,9.69653 5.2143,21.12809 4.49067,16.79403 5.76856,20.72368 6.65571,20.46711 0.60389,-0.17465 5.42705,-1.47688 10.71812,-2.89385 z m 176.95439,-16.60981 c 1.56673,-5.79464 2.77428,-10.63269 2.68343,-10.75122 -0.0908,-0.11852 -9.44318,-2.71344 -20.78299,-5.76647 -13.66159,-3.67814 -20.77337,-5.29238 -21.07883,-4.7845 -0.67405,1.12074 -5.74232,20.51554 -5.44011,20.81775 0.39823,0.39823 39.32633,10.90897 40.62121,10.96789 0.88504,0.0403 1.80251,-2.36593 3.99729,-10.48345 z M 573.7698,206.74815 c 5.32025,-1.42757 9.96108,-2.85653 10.31295,-3.17548 0.51558,-0.46735 -8.41806,-36.16966 -10.19226,-40.73223 -0.39489,-1.01551 -1.68627,-0.81444 -10.98322,1.71007 -6.74201,1.83074 -10.53571,3.19724 -10.53571,3.79499 0,0.51375 2.05948,8.58245 4.57663,17.93044 2.51715,9.34799 4.94025,18.36242 5.38468,20.03206 0.44442,1.66965 1.02307,3.03572 1.28589,3.03572 0.26282,0 4.83079,-1.16801 10.15104,-2.59557 z m 178.24061,-17.23493 c 1.49818,-5.6032 2.5795,-10.3321 2.40293,-10.50867 -0.38567,-0.38567 -39.9353,-11.07895 -40.99881,-11.08511 -0.92021,-0.005 -6.47267,20.5184 -5.74726,21.2438 0.82348,0.82348 40.72512,11.44354 41.19744,10.96495 0.23195,-0.23503 1.64752,-5.01177 3.1457,-10.61497 z m -157.85314,-2.77348 c 5.5,-1.44674 10.11865,-2.72312 10.26365,-2.8364 0.28853,-0.22541 -10.5471,-41.15259 -11.02069,-41.62619 -0.37439,-0.3744 -20.52249,4.89237 -21.12364,5.52177 -0.35091,0.36741 8.9593,36.63303 10.43629,40.65194 0.44594,1.21341 0.16894,1.25482 11.44439,-1.71112 z m 175.61202,-9.71745 c 2.60532,-9.12624 4.84062,-17.81609 4.62391,-17.97559 -0.52571,-0.3869 -41.48784,-11.18822 -41.67495,-10.98928 -0.26669,0.28354 -5.18969,18.39172 -5.47917,20.15392 -0.2001,1.21807 2.00144,1.97331 20.13248,6.90638 11.19643,3.04631 20.5754,5.56481 20.84217,5.59666 0.26676,0.0319 0.96677,-1.62959 1.55556,-3.69209 z m -145.4639,-12.96003 c 0.29051,-0.26249 -10.65775,-40.80052 -11.1658,-41.34349 -0.50246,-0.53699 -19.8475,4.26267 -20.96949,5.2027 -0.44884,0.37606 9.66833,39.94753 10.60951,41.49716 0.2058,0.33884 20.93,-4.81807 21.52578,-5.35637 z m 9.12174,-16.88099 c 5.85766,-1.5822 10.69914,-2.94827 10.75885,-3.03572 0.16736,-0.24506 -10.91199,-41.28035 -11.23188,-41.60024 -0.32564,-0.32564 -20.58913,5.13834 -21.15523,5.70444 -0.20716,0.20715 0.12877,2.22555 0.74651,4.4853 0.61775,2.25977 3.12556,11.58188 5.57292,20.71581 2.44737,9.13393 4.49673,16.60714 4.55415,16.60714 0.0574,0 4.89703,-1.29453 10.75468,-2.87673 z m 143.40163,-21.4611 c 0.61809,-0.4399 -5.0726,-13.51931 -5.88208,-13.51931 -0.46199,0 -5.71798,19.00488 -5.71798,20.67537 0,0.62731 4.98432,-2.44751 11.60006,-7.15606 z m -123.8355,1.77125 c 5.35449,-1.41162 10.00123,-2.81848 10.32607,-3.12635 0.32485,-0.30787 -1.54096,-8.55469 -4.14624,-18.32627 -2.60527,-9.771583 -5.05308,-18.971868 -5.43958,-20.445082 -0.39949,-1.522715 -1.14457,-2.678572 -1.72665,-2.678572 -1.04386,0 -19.63831,4.919871 -20.42397,5.403943 -0.3255,0.200543 8.77543,35.776581 10.44906,40.846061 0.38816,1.17571 -0.17079,1.26106 10.96131,-1.67373 z m 20.68917,-20.03834 c 5.36831,-1.43271 9.85498,-2.67891 9.97038,-2.76936 0.22758,-0.17833 -10.61352,-41.228345 -11.01145,-41.695067 -0.13301,-0.156 -4.9892,0.99555 -10.79153,2.559 -8.10444,2.18375 -10.52911,3.104272 -10.46086,3.97145 0.0489,0.62085 2.45958,9.994929 5.35715,20.831293 3.56046,13.315474 5.57747,19.703314 6.22202,19.705044 0.52456,10e-4 5.34599,-1.16965 10.71429,-2.60236 z m 19.85846,-19.866334 10.09789,-2.68625 -2.77889,-10.456964 c -1.52838,-5.751329 -3.93935,-14.836421 -5.3577,-20.189107 -1.41835,-5.352678 -2.79705,-10.085239 -3.06377,-10.5168 -0.33379,-0.540096 -3.6527,0.06767 -10.64848,1.949971 -5.58996,1.504045 -10.3435,2.914578 -10.56345,3.134518 -0.69972,0.69973 10.64658,42.019053 11.45784,41.725453 0.41726,-0.151007 5.30271,-1.483378 10.85656,-2.960821 z M 712.6872,68.00921 c 5.47718,-1.486228 10.07409,-3.048957 10.21534,-3.472742 0.20378,-0.611329 -10.27424,-40.888388 -10.76463,-41.378771 -0.0715,-0.07155 -3.98574,0.920403 -8.69822,2.20433 -4.71247,1.283927 -9.45206,2.55046 -10.53242,2.814518 -1.08036,0.264057 -1.96428,0.944716 -1.96428,1.512575 0,0.804978 8.71742,34.07454 10.43724,39.833169 0.20532,0.6875 0.59272,1.236307 0.86089,1.219571 0.26817,-0.01671 4.96891,-1.246428 10.44608,-2.73265 z m 19.97511,-19.85657 c 5.53652,-1.440807 10.18113,-2.707334 10.32137,-2.814505 0.27498,-0.210143 -10.57792,-41.159692 -11.03653,-41.6424028 -0.36244,-0.3814828 -20.973,5.0118536 -21.29922,5.5735429 -0.21352,0.3676493 9.64459,38.0546429 10.62275,40.6101569 0.45166,1.179989 -0.0987,1.263407 11.39163,-1.726792 z"
       id="path4261"
       inkscape:connector-curvature="0"
       transform="translate(167.83875,162.6739)" />
    <rect
       style="fill:#ffffff"
       id="rect3424"
       width="507.09659"
       height="179.80716"
       x="167.83875"
       y="436.19012" />
    <rect
       style="fill:#cccccc;fill-opacity:1;stroke:none"
       id="ParkingSpace-1"
       width="43"
       height="22"
       x="-337.52203"
       y="392.7634"
       transform="matrix(0.5,-0.8660254,0.8660254,0.5,0,0)" />
    <rect
       style="fill:#cccccc;fill-opacity:1;stroke:none"
       id="ParkingSpace-2"
       width="43"
       height="22"
       x="-323.52478"
       y="416.99484"
       transform="matrix(0.5,-0.8660254,0.8660254,0.5,0,0)" />
    <rect
       style="fill:#cccccc;fill-opacity:1;stroke:none"
       id="ParkingSpace-3"
       width="43"
       height="22"
       x="-309.5177"
       y="441.25519"
       transform="matrix(0.5,-0.8660254,0.8660254,0.5,0,0)" />
    <rect
       style="fill:#cccccc;fill-opacity:1;stroke:none"
       id="ParkingSpace-4"
       width="43"
       height="22"
       x="-295.51495"
       y="465.46597"
       transform="matrix(0.5,-0.8660254,0.8660254,0.5,0,0)" />
    <rect
       style="fill:#cccccc;fill-opacity:1;stroke:none"
       id="ParkingSpace-5"
       width="43"
       height="22"
       x="-281.50787"
       y="489.72632"
       transform="matrix(0.5,-0.8660254,0.8660254,0.5,0,0)" />
    <rect
       style="fill:#cccccc;fill-opacity:1;stroke:none"
       id="ParkingSpace-6"
       width="43"
       height="22"
       x="-267.51062"
       y="513.95776"
       transform="matrix(0.5,-0.8660254,0.8660254,0.5,0,0)" />
    <rect
       style="fill:#cccccc;fill-opacity:1;stroke:none"
       id="ParkingSpace-7"
       width="43"
       height="22"
       x="-253.50354"
       y="538.21844"
       transform="matrix(0.5,-0.8660254,0.8660254,0.5,0,0)" />
    <rect
       style="fill:#cccccc;fill-opacity:1;stroke:none"
       id="ParkingSpace-8"
       width="43"
       height="22"
       x="-239.47032"
       y="562.43951"
       transform="matrix(0.5,-0.8660254,0.8660254,0.5,0,0)" />
    <rect
       style="fill:#cccccc;fill-opacity:1;stroke:none"
       id="ParkingSpace-9"
       width="43"
       height="22"
       x="-225.46324"
       y="586.69989"
       transform="matrix(0.5,-0.8660254,0.8660254,0.5,0,0)" />
    <rect
       style="fill:#cccccc;fill-opacity:1;stroke:none"
       id="ParkingSpace-10"
       width="43"
       height="22"
       x="-211.46599"
       y="610.93134"
       transform="matrix(0.5,-0.8660254,0.8660254,0.5,0,0)" />
    <rect
       style="fill:#cccccc;fill-opacity:1;stroke:none"
       id="ParkingSpace-11"
       width="43"
       height="22"
       x="-197.45891"
       y="635.19165"
       transform="matrix(0.5,-0.8660254,0.8660254,0.5,0,0)" />
    <rect
       style="fill:#cccccc;fill-opacity:1;stroke:none"
       id="ParkingSpace-12"
       width="43"
       height="22"
       x="-183.45616"
       y="659.40247"
       transform="matrix(0.5,-0.8660254,0.8660254,0.5,0,0)" />
    <rect
       style="fill:#cccccc;fill-opacity:1;stroke:none"
       id="ParkingSpace-13"
       width="43"
       height="22"
       x="-169.44908"
       y="683.66278"
       transform="matrix(0.5,-0.8660254,0.8660254,0.5,0,0)" />
    <rect
       style="fill:#cccccc;fill-opacity:1;stroke:none"
       id="ParkingSpace-14"
       width="43"
       height="22"
       x="-155.45183"
       y="707.89423"
       transform="matrix(0.5,-0.8660254,0.8660254,0.5,0,0)" />
    <rect
       style="fill:#cccccc;fill-opacity:1;stroke:none"
       id="ParkingSpace-16"
       width="43"
       height="22"
       x="-632.47852"
       y="464.58832"
       transform="matrix(-0.25881904,-0.96592583,0.96592583,-0.25881904,0,0)" />
    <rect
       style="fill:#cccccc;fill-opacity:1;stroke:none"
       id="ParkingSpace-17"
       width="43"
       height="22"
       x="-618.47144"
       y="488.84869"
       transform="matrix(-0.25881904,-0.96592583,0.96592583,-0.25881904,0,0)" />
    <rect
       style="fill:#cccccc;fill-opacity:1;stroke:none"
       id="ParkingSpace-18"
       width="43"
       height="22"
       x="-604.47418"
       y="513.08014"
       transform="matrix(-0.25881904,-0.96592583,0.96592583,-0.25881904,0,0)" />
    <rect
       style="fill:#cccccc;fill-opacity:1;stroke:none"
       id="ParkingSpace-19"
       width="43"
       height="22"
       x="-590.4671"
       y="537.34045"
       transform="matrix(-0.25881904,-0.96592583,0.96592583,-0.25881904,0,0)" />
    <rect
       style="fill:#cccccc;fill-opacity:1;stroke:none"
       id="ParkingSpace-20"
       width="43"
       height="22"
       x="-576.46436"
       y="561.55127"
       transform="matrix(-0.25881904,-0.96592583,0.96592583,-0.25881904,0,0)" />
    <rect
       style="fill:#cccccc;fill-opacity:1;stroke:none"
       id="ParkingSpace-21"
       width="43"
       height="22"
       x="-562.45728"
       y="585.81158"
       transform="matrix(-0.25881904,-0.96592583,0.96592583,-0.25881904,0,0)" />
    <rect
       style="fill:#cccccc;fill-opacity:1;stroke:none"
       id="ParkingSpace-22"
       width="43"
       height="22"
       x="-548.46002"
       y="610.04303"
       transform="matrix(-0.25881904,-0.96592583,0.96592583,-0.25881904,0,0)" />
    <rect
       style="fill:#cccccc;fill-opacity:1;stroke:none"
       id="ParkingSpace-23"
       width="43"
       height="22"
       x="-534.45294"
       y="634.30371"
       transform="matrix(-0.25881904,-0.96592583,0.96592583,-0.25881904,0,0)" />
    <rect
       style="fill:#cccccc;fill-opacity:1;stroke:none"
       id="ParkingSpace-24"
       width="43"
       height="22"
       x="-520.41974"
       y="658.52478"
       transform="matrix(-0.25881904,-0.96592583,0.96592583,-0.25881904,0,0)" />
    <rect
       style="fill:#cccccc;fill-opacity:1;stroke:none"
       id="ParkingSpace-25"
       width="43"
       height="22"
       x="-506.41272"
       y="682.78516"
       transform="matrix(-0.25881904,-0.96592583,0.96592583,-0.25881904,0,0)" />
    <rect
       style="fill:#cccccc;fill-opacity:1;stroke:none"
       id="ParkingSpace-26"
       width="43"
       height="22"
       x="-492.41547"
       y="707.0166"
       transform="matrix(-0.25881904,-0.96592583,0.96592583,-0.25881904,0,0)" />
    <rect
       style="fill:#cccccc;fill-opacity:1;stroke:none"
       id="ParkingSpace-27"
       width="43"
       height="22"
       x="-478.40839"
       y="731.27692"
       transform="matrix(-0.25881904,-0.96592583,0.96592583,-0.25881904,0,0)" />
    <rect
       style="fill:#cccccc;fill-opacity:1;stroke:none"
       id="ParkingSpace-28"
       width="43"
       height="22"
       x="-464.40558"
       y="755.48773"
       transform="matrix(-0.25881904,-0.96592583,0.96592583,-0.25881904,0,0)" />
    <rect
       style="fill:#cccccc;fill-opacity:1;stroke:none"
       id="ParkingSpace-29"
       width="43"
       height="22"
       x="-450.3985"
       y="779.74805"
       transform="matrix(-0.25881904,-0.96592583,0.96592583,-0.25881904,0,0)" />
    <rect
       style="fill:#cccccc;fill-opacity:1;stroke:none"
       id="ParkingSpace-30"
       width="43"
       height="22"
       x="-436.40125"
       y="803.97949"
       transform="matrix(-0.25881904,-0.96592583,0.96592583,-0.25881904,0,0)" />
    <path
       style="fill:#ff0505;fill-opacity:1;stroke:none"
       id="path3646"
       sodipodi:type="arc"
       sodipodi:cx="402.79834"
       sodipodi:cy="294.7478"
       sodipodi:rx="15.909903"
       sodipodi:ry="32.829956"
       sodipodi:start="0"
       sodipodi:end="0.05371181"
       d="m 418.70824,294.7478 a 15.909903,32.829956 0 0 1 -0.0229,1.76251"
       sodipodi:open="true" />
    <rect
       style="fill:#cccccc;fill-opacity:1;stroke:none"
       id="ParkingSpace-31"
       width="43"
       height="22"
       x="-641.71216"
       y="-115.45023"
       transform="matrix(-0.5,-0.8660254,0.8660254,-0.5,0,0)" />
    <rect
       style="fill:#cccccc;fill-opacity:1;stroke:none"
       id="ParkingSpace-32"
       width="43"
       height="22"
       x="-655.71869"
       y="-91.189575"
       transform="matrix(-0.5,-0.8660254,0.8660254,-0.5,0,0)" />
    <rect
       style="fill:#cccccc;fill-opacity:1;stroke:none"
       id="ParkingSpace-33"
       width="43"
       height="22"
       x="-669.68445"
       y="-66.957458"
       transform="matrix(-0.5,-0.8660254,0.8660254,-0.5,0,0)" />
    <rect
       style="fill:#cccccc;fill-opacity:1;stroke:none"
       id="ParkingSpace-34"
       width="43"
       height="22"
       x="-683.69098"
       y="-42.696777"
       transform="matrix(-0.5,-0.8660254,0.8660254,-0.5,0,0)" />
    <rect
       style="fill:#cccccc;fill-opacity:1;stroke:none"
       id="ParkingSpace-35"
       width="43"
       height="22"
       x="-697.67743"
       y="-18.459061"
       transform="matrix(-0.5,-0.8660254,0.8660254,-0.5,0,0)" />
    <rect
       style="fill:#cccccc;fill-opacity:1;stroke:none"
       id="ParkingSpace-36"
       width="43"
       height="22"
       x="-711.68414"
       y="5.8016887"
       transform="matrix(-0.5,-0.8660254,0.8660254,-0.5,0,0)" />
    <rect
       style="fill:#cccccc;fill-opacity:1;stroke:none"
       id="ParkingSpace-37"
       width="43"
       height="22"
       x="-725.64368"
       y="30.065342"
       transform="matrix(-0.5,-0.8660254,0.8660254,-0.5,0,0)" />
    <rect
       style="fill:#cccccc;fill-opacity:1;stroke:none"
       id="ParkingSpace-38"
       width="43"
       height="22"
       x="-739.65021"
       y="54.326054"
       transform="matrix(-0.5,-0.8660254,0.8660254,-0.5,0,0)" />
    <rect
       style="fill:#cccccc;fill-opacity:1;stroke:none"
       id="ParkingSpace-39"
       width="43"
       height="22"
       x="-753.63666"
       y="78.563782"
       transform="matrix(-0.5,-0.8660254,0.8660254,-0.5,0,0)" />
    <rect
       style="fill:#cccccc;fill-opacity:1;stroke:none"
       id="ParkingSpace-40"
       width="43"
       height="22"
       x="-767.64319"
       y="102.82441"
       transform="matrix(-0.5,-0.8660254,0.8660254,-0.5,0,0)" />
    <rect
       style="fill:#cccccc;fill-opacity:1;stroke:none"
       id="ParkingSpace-41"
       width="43"
       height="22"
       x="-781.60895"
       y="127.05659"
       transform="matrix(-0.5,-0.8660254,0.8660254,-0.5,0,0)" />
    <rect
       style="fill:#cccccc;fill-opacity:1;stroke:none"
       id="ParkingSpace-42"
       width="43"
       height="22"
       x="-795.61554"
       y="151.31728"
       transform="matrix(-0.5,-0.8660254,0.8660254,-0.5,0,0)" />
    <rect
       style="fill:#cccccc;fill-opacity:1;stroke:none"
       id="ParkingSpace-43"
       width="43"
       height="22"
       x="-809.60187"
       y="175.55495"
       transform="matrix(-0.5,-0.8660254,0.8660254,-0.5,0,0)" />
    <rect
       style="fill:#cccccc;fill-opacity:1;stroke:none"
       id="ParkingSpace-44"
       width="43"
       height="22"
       x="-823.6087"
       y="199.81575"
       transform="matrix(-0.5,-0.8660254,0.8660254,-0.5,0,0)" />
    <rect
       style="fill:#cccccc;fill-opacity:1;stroke:none"
       id="ParkingSpace-45"
       width="43"
       height="22"
       x="-837.60748"
       y="223.96912"
       transform="matrix(-0.5,-0.8660254,0.8660254,-0.5,0,0)" />
    <rect
       style="fill:#cccccc;fill-opacity:1;stroke:none"
       id="ParkingSpace-46"
       width="43"
       height="22"
       x="-851.61401"
       y="248.22978"
       transform="matrix(-0.5,-0.8660254,0.8660254,-0.5,0,0)" />
    <rect
       style="fill:#cccccc;fill-opacity:1;stroke:none"
       id="ParkingSpace-47"
       width="43"
       height="22"
       x="-839.43304"
       y="-355.87634"
       transform="matrix(-0.96592582,-0.25881905,0.25881905,-0.96592582,0,0)" />
    <rect
       style="fill:#cccccc;fill-opacity:1;stroke:none"
       id="ParkingSpace-48"
       width="43"
       height="22"
       x="-853.43964"
       y="-331.61566"
       transform="matrix(-0.96592582,-0.25881905,0.25881905,-0.96592582,0,0)" />
    <rect
       style="fill:#cccccc;fill-opacity:1;stroke:none"
       id="ParkingSpace-49"
       width="43"
       height="22"
       x="-867.42603"
       y="-307.37796"
       transform="matrix(-0.96592582,-0.25881905,0.25881905,-0.96592582,0,0)" />
    <rect
       style="fill:#cccccc;fill-opacity:1;stroke:none"
       id="ParkingSpace-50"
       width="43"
       height="22"
       x="-881.43256"
       y="-283.11737"
       transform="matrix(-0.96592582,-0.25881905,0.25881905,-0.96592582,0,0)" />
    <rect
       style="fill:#cccccc;fill-opacity:1;stroke:none"
       id="ParkingSpace-51"
       width="43"
       height="22"
       x="-895.39838"
       y="-258.88519"
       transform="matrix(-0.96592582,-0.25881905,0.25881905,-0.96592582,0,0)" />
    <rect
       style="fill:#cccccc;fill-opacity:1;stroke:none"
       id="ParkingSpace-52"
       width="43"
       height="22"
       x="-909.40485"
       y="-234.62503"
       transform="matrix(-0.96592582,-0.25881905,0.25881905,-0.96592582,0,0)" />
    <rect
       style="fill:#cccccc;fill-opacity:1;stroke:none"
       id="ParkingSpace-53"
       width="43"
       height="22"
       x="-923.39136"
       y="-210.38733"
       transform="matrix(-0.96592582,-0.25881905,0.25881905,-0.96592582,0,0)" />
    <rect
       style="fill:#cccccc;fill-opacity:1;stroke:none"
       id="ParkingSpace-54"
       width="43"
       height="22"
       x="-937.39813"
       y="-186.1265"
       transform="matrix(-0.96592582,-0.25881905,0.25881905,-0.96592582,0,0)" />
    <rect
       style="fill:#cccccc;fill-opacity:1;stroke:none"
       id="ParkingSpace-55"
       width="43"
       height="22"
       x="-951.3576"
       y="-161.86285"
       transform="matrix(-0.96592582,-0.25881905,0.25881905,-0.96592582,0,0)" />
    <rect
       style="fill:#cccccc;fill-opacity:1;stroke:none"
       id="ParkingSpace-56"
       width="43"
       height="22"
       x="-965.3642"
       y="-137.60223"
       transform="matrix(-0.96592582,-0.25881905,0.25881905,-0.96592582,0,0)" />
    <rect
       style="fill:#cccccc;fill-opacity:1;stroke:none"
       id="ParkingSpace-57"
       width="43"
       height="22"
       x="-979.35052"
       y="-113.36445"
       transform="matrix(-0.96592582,-0.25881905,0.25881905,-0.96592582,0,0)" />
    <rect
       style="fill:#cccccc;fill-opacity:1;stroke:none"
       id="ParkingSpace-58"
       width="43"
       height="22"
       x="-993.35712"
       y="-89.103882"
       transform="matrix(-0.96592582,-0.25881905,0.25881905,-0.96592582,0,0)" />
    <rect
       style="fill:#cccccc;fill-opacity:1;stroke:none"
       id="ParkingSpace-59"
       width="43"
       height="22"
       x="-825.23639"
       y="-380.42825"
       transform="matrix(-0.96592582,-0.25881905,0.25881905,-0.96592582,0,0)" />
    <path
       style="fill:none;fill-rule:evenodd;stroke:#2dffff;stroke-width:1px;stroke-linecap:butt;stroke-linejoin:miter;stroke-opacity:0"
       d="m 582.12446,442.00743 285.71429,-277.85714 78.57142,-1.42858 2.14286,180 -274.28571,272.85715 z"
       id="path3426"
       inkscape:connector-curvature="0" />
    <path
       style="fill:none;fill-rule:evenodd;stroke:#fdffff;stroke-width:1px;stroke-linecap:butt;stroke-linejoin:miter;stroke-opacity:1"
       d="m 587.12446,438.436 c 3.57143,-0.71429 301.42857,-292.14286 301.42857,-292.14286 l 65.71429,-1.42857 0.71428,191.42857 -279.28571,280.71429 z"
       id="path4259"
       inkscape:connector-curvature="0" />
    <rect
       style="fill:#cccccc;fill-opacity:1;stroke:none"
       id="ParkingSpace-15"
       width="43"
       height="22"
       x="-141.44475"
       y="732.15491"
       transform="matrix(0.5,-0.8660254,0.8660254,0.5,0,0)" />
    <rect
       style="display:inline;fill:#666666;fill-opacity:1;stroke:none"
       id="rect3458-9"
       width="16"
       height="3.1567271"
       x="-540.48029"
       y="183.26717"
       transform="matrix(0,-1,1,0,0,0)" />
    <rect
       style="display:inline;fill:#666666;fill-opacity:1;stroke:none"
       id="rect3458-9-3"
       width="16"
       height="3.1567271"
       x="25.056845"
       y="-978.07837"
       transform="matrix(-0.25881905,0.96592583,-0.96592583,-0.25881905,0,0)" />
  </g>
  <g
     inkscape:groupmode="layer"
     id="layer3"
     inkscape:label="Laag 2"
     style="display:inline">
    <path
       sodipodi:type="star"
       style="fill:#666666;fill-opacity:1;stroke:none"
       id="path3442"
       sodipodi:sides="3"
       sodipodi:cx="372.99884"
       sodipodi:cy="92.969826"
       sodipodi:r1="44.446712"
       sodipodi:r2="22.223356"
       sodipodi:arg1="3.1415927"
       sodipodi:arg2="4.1887902"
       inkscape:flatsided="false"
       inkscape:rounded="0"
       inkscape:randomized="0"
       d="m 328.55213,92.969824 33.33503,-19.245989 33.33504,-19.24599 0,38.491981 -10e-6,38.491984 -33.33503,-19.24599 z"
       transform="matrix(-0.135376,-0.03627389,0.07394243,-0.2759569,814.66171,162.71988)"
       inkscape:transform-center-y="-0.80613109"
       inkscape:transform-center-x="-0.081154272" />
    <path
       sodipodi:type="star"
       style="fill:#666666;fill-opacity:1;stroke:none"
       id="path3442-3"
       sodipodi:sides="3"
       sodipodi:cx="372.99884"
       sodipodi:cy="92.969826"
       sodipodi:r1="44.446712"
       sodipodi:r2="22.223356"
       sodipodi:arg1="3.1415927"
       sodipodi:arg2="4.1887902"
       inkscape:flatsided="false"
       inkscape:rounded="0"
       inkscape:randomized="0"
       d="m 328.55213,92.969824 33.33503,-19.245989 33.33504,-19.24599 0,38.491981 -10e-6,38.491984 -33.33503,-19.24599 z"
       inkscape:transform-center-x="-1.5573127"
       transform="matrix(-0.14015155,0,0,-0.28569161,73.72803,396.43112)" />
  </g>
</svg>
